<?xml version="1.0" encoding="UTF-8"?>
<svg id="Capa_1" data-name="Capa 1" xmlns="http://www.w3.org/2000/svg" viewBox="0 0 595.28 841.89">
  <defs>
    <style>
      .cls-1 {
        fill: #f387a9;
      }

      .cls-1, .cls-2, .cls-3, .cls-4, .cls-5 {
        stroke-width: 0px;
      }

      .cls-2 {
        fill: #fff;
      }

      .cls-3 {
        fill: #fc72b0;
      }

      .cls-4 {
        fill: #f2f2f2;
      }

      .cls-5 {
        fill: #db308e;
      }
    </style>
  </defs>
  <path class="cls-1" d="m322.7,360.63c-17.6,4.56-41.67,6.72-63.35-5.47-5.2-2.92-11.07-7.12-16.85-13.28-21.31,9.04-35.29,20.68-43.4,28.6-6.66,6.5-48.73,48.91-35.24,82.72,4.3,10.77,12.66,16.74,15.55,18.89,33.23,0,66.66,0,66.66,0,1.97-10,6.34-25.53,16.85-41.87,8.53-13.26,18.39-22.82,26.81-29.46,5.2-4.1,10.85-7.59,16.74-10.62,6.75-3.48,15.09-8.74,23.34-16.61,8.23-7.85,13.76-15.81,17.36-21.96-2.94,1.45-12.12,5.84-24.48,9.04Z"/>
  <path class="cls-5" d="m418.3,483.92l-29.4,132.44c-.44,1.99-2.55,3.55-5.25,3.87-2.67.31-5.39.61-8.16.9-.17.02-.35.04-.53.06-.05,0-.09.01-.15.01-.92.1-1.87.2-2.81.3-.19.02-.38.04-.57.06-.05,0-.09.01-.14.01-4.02.39-8.14.77-12.36,1.11-.87.08-1.75.15-2.63.21-.27.02-.53.04-.79.06-.08,0-.16,0-.24.02-.8.06-1.6.13-2.41.18-.33.02-.66.05-1,.07-3.47.26-7.01.49-10.61.7-.79.04-1.57.08-2.37.13-.34.01-.68.03-1.03.05-.1,0-.19.01-.29.01-.69.04-1.38.07-2.08.11-.43.02-.85.04-1.28.06-3.5.18-7.05.32-10.66.44-1.11.04-2.24.07-3.38.11-.38,0-.78.02-1.17.03h-.14c-1.07.03-2.12.06-3.2.09h-.19c-5.41.11-10.93.18-16.56.18h-1.78c-.53,0-1.06,0-1.59-.01-.58,0-1.15-.01-1.73-.01-5.9-.04-11.67-.16-17.31-.33-.29-.01-.57-.02-.85-.03-.85-.03-1.69-.05-2.54-.08-.27-.01-.54-.02-.8-.03-6.87-.26-13.55-.6-20.02-1.01-.28-.02-.56-.03-.84-.05-.87-.06-1.72-.12-2.57-.17-.26-.02-.53-.04-.79-.06-4.68-.32-9.23-.69-13.68-1.09-.48-.04-.97-.08-1.45-.13-.68-.05-1.36-.12-2.03-.18-.47-.04-.93-.09-1.4-.14-5.18-.49-10.2-1.02-15.04-1.58-2.7-.32-4.82-1.87-5.28-3.87-10.31-46.61-20.64-93.22-30.95-139.83-.11-.5-.22-.99-.33-1.49.13.24.27.48.41.72,2.98,4.93,8.44,8.23,14.69,8.23,4.97,0,9.45-2.09,12.56-5.46.05-.05.1-.11.15-.16.19-.19.36-.38.52-.58.59-.72,1.67-.72,2.27,0,.13.15.25.29.38.43.09.11.18.21.28.31,3.1,3.36,7.59,5.46,12.58,5.46,5.55,0,10.47-2.61,13.59-6.65.08-.09.15-.18.22-.28h0c.06-.08.12-.16.17-.24.56-.79,1.77-.79,2.33,0,.21.28.41.56.64.82.1.14.21.27.33.4,3.12,3.64,7.8,5.95,13.01,5.95s9.39-2.08,12.52-5.39c.12-.12.24-.25.35-.38h0c.58-.68,1.61-.68,2.2-.01.25.29.52.57.79.83.14.15.29.29.44.43,3.07,2.81,7.15,4.52,11.66,4.52,4.81,0,9.18-1.98,12.29-5.15.2-.21.39-.42.59-.63h.01c.29-.34.69-.51,1.1-.5.09,0,.17.01.26.03.03,0,.06.01.09.02.17.04.34.12.5.23t.01,0c.08.06.17.14.24.22.18.21.36.41.56.61.54.56,1.13,1.08,1.74,1.55,2.9,2.27,6.57,3.62,10.57,3.62,4.75,0,9.06-1.92,12.15-5.01l.02-.02h.01c.24-.25.47-.5.69-.75.59-.67,1.63-.67,2.22,0,.13.16.27.31.42.46.01.01.02.03.03.04l.02.02c3.12,3.24,7.51,5.26,12.4,5.26s8.87-1.83,11.94-4.81c.19-.18.38-.37.56-.56v-.02c.15-.13.25-.25.37-.39.4-.46,1.01-.6,1.54-.42.26.06.48.21.67.42.1.11.2.21.3.31.14.15.28.3.43.45.55.55,1.14,1.07,1.76,1.54,2.88,2.18,6.48,3.48,10.39,3.48s7.47-1.28,10.34-3.45c.54-.4,1.06-.84,1.56-1.32.05-.05.11-.1.16-.16.29-.27.56-.56.82-.85.33-.37.78-.53,1.23-.49.36.03.72.19.98.49.1.12.22.24.33.35.03.03.06.06.08.09,3.11,3.29,7.54,5.34,12.46,5.34,4.07,0,7.8-1.4,10.73-3.74.05-.04.11-.09.16-.13.36-.29.71-.59,1.04-.91.33-.32.65-.66.96-1,.48-.54,1.23-.64,1.82-.31.04.02.08.04.12.07.1.06.19.15.27.24.12.14.25.28.38.42,2.78,2.96,6.64,4.92,10.96,5.29Z"/>
  <path class="cls-3" d="m232.95,622.13c-.68-.05-1.36-.12-2.03-.18-.47-.04-.93-.09-1.4-.14l-23.94-143.28s.1-.11.15-.16c.19-.19.36-.38.52-.58.59-.72,1.67-.72,2.27,0,.13.15.25.29.38.43l24.05,143.91Z"/>
  <path class="cls-3" d="m251.44,623.58c-.87-.06-1.72-.12-2.57-.17-.26-.02-.53-.04-.79-.06l-12.73-146.01c.08-.09.15-.18.22-.28h0c.06-.08.12-.16.17-.24.56-.79,1.77-.79,2.33,0,.21.28.41.56.64.82l12.73,145.94Z"/>
  <path class="cls-3" d="m275.64,624.75c-.85-.03-1.69-.05-2.54-.08-.27-.01-.54-.02-.8-.03l-7.73-146.04c.12-.12.24-.25.35-.38h0c.58-.68,1.61-.68,2.2-.01.25.29.52.57.79.83l7.72,145.71Z"/>
  <path class="cls-3" d="m297.12,625.13c-.53,0-1.06,0-1.59-.01-.58,0-1.15-.01-1.73-.01l-1.47-146.26c.2-.21.39-.43.58-.64.29-.34.69-.51,1.1-.5.09,0,.17.01.26.03.03,0,.06.01.09.02.17.04.34.12.5.23t.01,0c.08.07.15.14.22.22.18.21.36.42.56.62l.02,2.13,1.45,144.17Z"/>
  <path class="cls-3" d="m323.49,478.67l-4.5,146.19h-.14c-1.07.03-2.12.06-3.2.09l4.5-145.99h.01c.24-.25.47-.5.69-.75.59-.67,1.63-.67,2.22,0,.13.16.27.31.42.46Z"/>
  <path class="cls-3" d="m351.75,478.97l-.55,5.6-13.64,139.54c-.69.04-1.38.07-2.08.11-.43.02-.85.04-1.28.06l13.94-142.58.3-3.08v-.02c.15-.13.25-.25.37-.39.4-.46,1.01-.6,1.54-.42.26.06.48.21.67.42.1.11.2.21.3.31.14.15.28.3.43.45Z"/>
  <path class="cls-3" d="m379.4,478.65l-.68,4.1-23.45,140.22c-.8.06-1.6.13-2.41.18-.33.02-.66.05-1,.07l23.02-137.7,1.08-6.46c.29-.27.56-.56.82-.85.33-.37.78-.53,1.23-.49.36.03.72.19.98.49.1.12.22.24.33.35.03.03.06.06.08.09Z"/>
  <path class="cls-3" d="m407.34,478.63l-31.85,142.5c-.17.02-.35.04-.53.06-.05,0-.09.01-.15.01-.92.1-1.87.2-2.81.3l31.79-142.29c.33-.32.65-.66.96-1,.48-.54,1.23-.64,1.82-.31.04.02.08.04.12.07.1.06.19.15.27.24.12.14.25.28.38.42Z"/>
  <g>
    <path class="cls-1" d="m334.58,349.93c-11.75,3.9-24.19,5.5-36.58,5.59-8.39.06-17.03-.05-25.1-2.64-7.71-2.48-14.89-7.35-20.49-13.16-3.05-3.16-6.27-6.82-7.61-11.05-1.46-4.61-1.24-9.69.51-14.18,2.72-6.99,9.37-11.66,16.3-13.92,1.76-.58,3.57-1.01,5.4-1.29,1.19-.18,3.29-.88,4.02.49.25.47.31,1.01.38,1.54.67,5.1,2.98,10.02,6.28,13.95,6.19,7.39,13.99,9.23,15.52,9.62.25,0-1.49-.14-4.01-.72-11.17-2.59-15.49-8.66-25.11-9.6-1.74-.17-2.84.81-3.57,2.04-1,1.69.32,3.85,1.15,4.91,5.1,6.47,21.11,12.41,38.16,10.09,13.38-1.82,25.92-9.15,34.08-19.91,5.99,3.25,12.12,6.6,15.86,12.62,1.37,2.2,2.27,4.7,2.42,7.3.58,9.85-8.71,15.35-17.24,18.22-.13.04-.25.08-.38.13Z"/>
    <path class="cls-1" d="m253.22,472c3.18-10.8,9.5-27.39,22.47-44.43,6.44-8.46,13.18-15.27,19.43-20.68,6.21-5.37,13.17-9.79,20.52-13.45,7.99-3.98,19.07-11.19,27.96-23.74,3.95-5.58,6.66-11.08,8.54-15.95,2.69-6.95,5.86-13.7,9.68-20.09l.84-1.4c5.49,2.96,19.28,11.37,27.23,28.43,1.96,4.21,6.16,13.49,5.45,25.53-1.37,23.05-19.62,37.15-22.98,39.66-6.49,5.15-15.89,14.05-23.15,27.67-3.78,7.1-6.07,13.78-7.49,19.31-29.5-.28-59.01-.57-88.51-.85Z"/>
    <path class="cls-1" d="m348.02,471.83c3.43-7.61,8.68-17.25,16.68-27.23,5.38-6.72,10.85-12.15,15.81-16.46,5.05-4.4,9.58-9.38,13.21-15.01,1.49-2.32,2.96-4.87,4.34-7.68,4.03-8.19,5.89-15.68,6.81-21.11,5.02,3.85,12.95,10.94,19.4,22.13,6.65,11.53,8.76,22.25,9.53,28.6.42,3.79.57,9.64-1.36,16.34-3.31,11.49-10.69,18.39-13.96,21.11-23.49-.23-46.98-.45-70.47-.68Z"/>
    <g>
      <path class="cls-2" d="m218.08,447.53c2.35-26.98,22.99-39.14,44.63-50.73,16.22-8.12,21.91-10.5,31.96-26.38-4.69,8.14-10.55,16.07-19.06,20.52-8.18,4.71-16.75,8.59-24.72,13.67-17.06,9.68-30.36,22.54-32.82,42.91h0Z"/>
      <path class="cls-2" d="m305.43,464.98c2.35-26.98,22.99-39.14,44.63-50.73,16.22-8.12,21.91-10.49,31.96-26.38-4.69,8.14-10.55,16.07-19.06,20.52-8.18,4.71-16.75,8.59-24.72,13.67-17.06,9.68-30.36,22.54-32.82,42.91h0Z"/>
      <path class="cls-2" d="m177.56,450.93c.74-21.9,14.2-42.41,33.65-52.37,4.86-2.37,9.81-4.52,14.52-7.17,14.2-7.79,27.22-17.65,38.64-29.13-7.33,7.95-15.55,15.09-24.42,21.31-8.8,6.32-18.5,11.31-28.28,15.88-19.3,9.81-32.57,29.86-34.11,51.49h0Z"/>
      <path class="cls-2" d="m244.97,383.87c11.5-1.17,22.53-6.15,30.79-14.27,1.21-1.13,2.32-2.36,3.43-3.6-7.54,11.07-20.82,18-34.21,17.87h0Z"/>
      <path class="cls-2" d="m315.61,370.08c-7.65,11.43-21.6,17.72-35.15,17.79,1.69-.16,3.36-.42,5.01-.78,11.57-2.23,22.54-7.87,30.14-17h0Z"/>
      <path class="cls-2" d="m394.08,424.55c16.55,7.66,13.31,23.95.02,33.05-3.79,2.62-8.14,4.38-12.61,5.41,4.84-1.6,9.57-3.8,13.5-7.09,11.88-9.8,13.62-23.16-.91-31.38h0Z"/>
      <path class="cls-2" d="m299.78,415.36c11.47-8.92,24.56-15.73,38.33-20.34,3.4-1.2,7-1.9,10.39-3.15,10.17-3.72,18.7-11.47,23.11-21.45-1.3,3.39-3.11,6.58-5.31,9.49-4.48,5.79-10.62,10.25-17.48,12.81-3.41,1.29-6.96,2-10.39,3.24-13.76,4.5-26.74,11.16-38.65,19.39h0Z"/>
    </g>
    <g>
      <path class="cls-5" d="m305.94,273.88c4.35-19.73,17.39-37.41,35.37-46.76,2.56-1.34,5.15-2.58,7.68-4.11.51-.31,1.18-.15,1.49.36.4.64,0,1.52-.75,1.63-2.84.47-5.49,1.58-8.02,2.88-17.87,9.03-31.04,26.54-34.8,46.2-.11.62-1.13.48-.98-.21h0Z"/>
      <path class="cls-5" d="m332.62,300.22c-2.55,15.42-18.13,25.02-33.41,22.41-16.86-2.88-27.29-19.69-23.37-36.34,6.77-28.77,24.99-15.13,32.3-14.05,6.49.95,30.59-8.85,24.48,27.98Z"/>
      <path class="cls-5" d="m269.42,253.5c-.56.07-1.12.13-1.67.19,4.27-4.18,8.76-8.94,13.3-14.33,2.52-2.99,4.86-5.94,7.02-8.81,4.68-6.21,11.24-10.84,18.8-12.67.53-.13,1.07-.25,1.62-.36.5-.1,1-.19,1.49-.27,6.63-1.09,13.44-.35,19.8,1.84l12.64,4.35,4.24,1.46c-.65-.14-1.32-.27-2-.39-1.33-.23-2.61-.41-3.84-.55-2.62-.29-5.24.58-7.14,2.41-2.41,2.33-5.18,4.74-8.33,7.14-.55.42-1.1.82-1.64,1.21-7.94,5.74-16.86,9.96-26.22,12.86-1.37.42-2.78.84-4.22,1.24-8.66,2.41-16.71,3.85-23.84,4.68Z"/>
      <path class="cls-2" d="m326.25,292.15c0-.06-.1-.06-.11,0-.58,2.32-1.33,4.87-2.31,7.56-.49,1.33-.99,2.6-1.51,3.8-1.07,2.49-2.54,4.79-4.45,6.72-.01.01-.02.02-.03.03-2.94,2.97-5.99,4.96-8.53,6.29-.06.03-.03.12.04.11,2.27-.49,5.14-1.36,8.23-2.93h0c4.23-2.16,7.28-6.09,8.31-10.72.04-.17.08-.35.11-.52.86-4.24.63-7.87.26-10.33Z"/>
    </g>
    <path class="cls-4" d="m289.21,348.98c19.63,4.05,39.3-.4,54.52-13.64-12.91,15.41-35.86,20.68-54.52,13.64h0Z"/>
  </g>
</svg>