<?xml version="1.0" encoding="UTF-8"?>
<svg id="Capa_1" data-name="Capa 1" xmlns="http://www.w3.org/2000/svg" viewBox="0 0 3052 1126.54">
  <defs>
    <style>
      .cls-1 {
        fill: #fff;
      }

      .cls-2 {
        fill: #fc72b0;
      }

      .cls-3 {
        fill: #db308e;
      }

      .cls-4 {
        fill: #f387a9;
      }

      .cls-5 {
        fill: #f2f2f2;
      }
    </style>
  </defs>
  <g>
    <path class="cls-4" d="m445.5,396.9c-48.56,12.59-114.94,18.53-174.76-15.09-14.35-8.06-30.55-19.65-46.48-36.62-58.78,24.93-97.36,57.05-119.73,78.88-18.38,17.94-134.43,134.91-97.2,228.2,11.85,29.7,34.92,46.17,42.91,52.12,91.66,0,183.89,0,183.89,0,5.44-27.58,17.49-70.43,46.48-115.51,23.54-36.59,50.72-62.96,73.97-81.26,14.36-11.3,29.93-20.93,46.17-29.29,18.63-9.6,41.63-24.1,64.39-45.81,22.71-21.66,37.96-43.6,47.89-60.57-8.11,4-33.43,16.11-67.52,24.95Z"/>
    <path class="cls-3" d="m709.23,737l-81.1,365.35c-1.21,5.49-7.03,9.79-14.48,10.68-7.37.86-14.87,1.68-22.51,2.48-.47.06-.97.11-1.46.17-.14,0-.25.03-.41.03-2.54.28-5.16.55-7.75.83-.52.06-1.05.11-1.57.17-.14,0-.25.03-.39.03-11.09,1.08-22.45,2.12-34.1,3.06-2.4.22-4.83.41-7.26.58-.74.06-1.46.11-2.18.17-.22.03-.44.03-.66.06-2.21.17-4.41.36-6.65.5-.91.06-1.82.14-2.76.19-9.57.72-19.34,1.35-29.27,1.93-2.18.11-4.33.22-6.54.36-.94.03-1.88.08-2.84.14-.28,0-.52.03-.8.03-1.9.11-3.81.19-5.74.3-1.19.06-2.34.11-3.53.17-9.66.5-19.45.88-29.41,1.21-3.06.11-6.18.19-9.32.3-1.05.03-2.15.06-3.23.08h-.39c-2.95.08-5.85.17-8.83.25h-.52c-14.92.3-30.15.5-45.68.5h-4.91c-1.46,0-2.92,0-4.39-.03-1.6,0-3.17-.03-4.77-.03-16.28-.11-32.19-.44-47.75-.91-.8-.03-1.57-.06-2.34-.08-2.34-.08-4.66-.14-7.01-.22-.74-.03-1.49-.06-2.21-.08-18.95-.72-37.38-1.66-55.23-2.79-.77-.06-1.54-.08-2.32-.14-2.4-.17-4.74-.33-7.09-.47-.72-.06-1.46-.11-2.18-.17-12.91-.88-25.46-1.9-37.74-3.01-1.32-.11-2.68-.22-4-.36-1.88-.14-3.75-.33-5.6-.5-1.3-.11-2.57-.25-3.86-.39-14.29-1.35-28.14-2.81-41.49-4.36-7.45-.88-13.3-5.16-14.57-10.68-28.44-128.58-56.94-257.15-85.38-385.73-.3-1.38-.61-2.73-.91-4.11.36.66.74,1.32,1.13,1.99,8.22,13.6,23.28,22.7,40.52,22.7,13.71,0,26.07-5.77,34.65-15.06.14-.14.28-.3.41-.44.52-.52.99-1.05,1.43-1.6,1.63-1.99,4.61-1.99,6.26,0,.36.41.69.8,1.05,1.19.25.3.5.58.77.86,8.55,9.27,20.94,15.06,34.7,15.06,15.31,0,28.88-7.2,37.49-18.34.22-.25.41-.5.61-.77v-.03c.17-.19.33-.41.47-.63,1.54-2.18,4.88-2.18,6.43,0,.58.77,1.13,1.54,1.77,2.26.28.39.58.74.91,1.1,8.61,10.04,21.52,16.41,35.89,16.41s25.9-5.74,34.54-14.87c.33-.33.66-.69.97-1.05l.03-.03c1.6-1.85,4.44-1.85,6.07,0,.69.8,1.43,1.57,2.18,2.29.39.41.8.8,1.21,1.19,8.47,7.75,19.72,12.47,32.17,12.47,13.27,0,25.32-5.46,33.9-14.21.55-.58,1.08-1.16,1.63-1.74h.03c.8-.94,1.9-1.41,3.03-1.38.25,0,.47.03.72.08.08,0,.17.03.25.06.47.11.94.33,1.38.63t.03,0c.22.17.47.39.66.61.5.58.99,1.13,1.54,1.68,1.49,1.54,3.12,2.98,4.8,4.28,8,6.26,18.12,9.99,29.16,9.99,13.1,0,24.99-5.3,33.52-13.82l.06-.06.03-.03c.66-.66,1.3-1.35,1.9-2.04,1.63-1.85,4.5-1.85,6.12,0,.36.44.74.86,1.16,1.27.03.03.06.08.08.11l.06.06c8.61,8.94,20.72,14.51,34.21,14.51s24.47-5.05,32.94-13.27c.52-.5,1.05-1.02,1.54-1.54l.03-.06c.39-.36.66-.69.99-1.08,1.1-1.27,2.79-1.66,4.25-1.16.72.17,1.32.58,1.85,1.16.28.3.55.58.83.86.39.41.77.83,1.19,1.24,1.52,1.52,3.14,2.95,4.86,4.25,7.94,6.01,17.88,9.6,28.66,9.6s20.61-3.53,28.52-9.52c1.49-1.1,2.92-2.32,4.3-3.64.14-.14.3-.28.44-.44.8-.74,1.54-1.54,2.26-2.34.91-1.02,2.15-1.46,3.39-1.35.99.08,1.99.52,2.7,1.35.28.33.61.66.91.97.08.08.17.17.22.25,8.58,9.08,20.8,14.73,34.37,14.73,11.23,0,21.52-3.86,29.6-10.32.14-.11.3-.25.44-.36.99-.8,1.96-1.63,2.87-2.51.91-.88,1.79-1.82,2.65-2.76,1.32-1.49,3.39-1.77,5.02-.86.11.06.22.11.33.19.28.17.52.41.74.66.33.39.69.77,1.05,1.16,7.67,8.17,18.32,13.57,30.23,14.59Z"/>
    <path class="cls-2" d="m197.92,1118.26c-1.88-.14-3.75-.33-5.6-.5-1.3-.11-2.57-.25-3.86-.39l-66.04-395.25c.14-.14.28-.3.41-.44.52-.52.99-1.05,1.43-1.6,1.63-1.99,4.61-1.99,6.26,0,.36.41.69.8,1.05,1.19l66.34,396.99Z"/>
    <path class="cls-2" d="m248.93,1122.26c-2.4-.17-4.74-.33-7.09-.47-.72-.06-1.46-.11-2.18-.17l-35.12-402.78c.22-.25.41-.5.61-.77v-.03c.17-.19.33-.41.47-.63,1.54-2.18,4.88-2.18,6.43,0,.58.77,1.13,1.54,1.77,2.26l35.12,402.59Z"/>
    <path class="cls-2" d="m315.69,1125.49c-2.34-.08-4.66-.14-7.01-.22-.74-.03-1.49-.06-2.21-.08l-21.32-402.86c.33-.33.66-.69.97-1.05l.03-.03c1.6-1.85,4.44-1.85,6.07,0,.69.8,1.43,1.57,2.18,2.29l21.3,401.95Z"/>
    <path class="cls-2" d="m374.94,1126.54c-1.46,0-2.92,0-4.39-.03-1.6,0-3.17-.03-4.77-.03l-4.06-403.47c.55-.58,1.08-1.19,1.6-1.77.8-.94,1.9-1.41,3.03-1.38.25,0,.47.03.72.08.08,0,.17.03.25.06.47.11.94.33,1.38.63t.03,0c.22.19.41.39.61.61.5.58.99,1.16,1.54,1.71l.06,5.88,4,397.7Z"/>
    <path class="cls-2" d="m447.68,722.52l-12.41,403.28h-.39c-2.95.08-5.85.17-8.83.25l12.41-402.73.03-.03c.66-.66,1.3-1.35,1.9-2.04,1.63-1.85,4.5-1.85,6.12,0,.36.44.74.86,1.16,1.27Z"/>
    <path class="cls-2" d="m525.64,723.35l-1.52,15.45-37.63,384.93c-1.9.11-3.81.19-5.74.3-1.19.06-2.34.11-3.53.17l38.45-393.32.83-8.5.03-.06c.39-.36.66-.69.99-1.08,1.1-1.27,2.79-1.66,4.25-1.16.72.17,1.32.58,1.85,1.16.28.3.55.58.83.86.39.41.77.83,1.19,1.24Z"/>
    <path class="cls-2" d="m601.92,722.46l-1.88,11.31-64.69,386.81c-2.21.17-4.41.36-6.65.5-.91.06-1.82.14-2.76.19l63.5-379.86,2.98-17.82c.8-.74,1.54-1.54,2.26-2.34.91-1.02,2.15-1.46,3.39-1.35.99.08,1.99.52,2.7,1.35.28.33.61.66.91.97.08.08.17.17.22.25Z"/>
    <path class="cls-2" d="m678.99,722.41l-87.86,393.1c-.47.06-.97.11-1.46.17-.14,0-.25.03-.41.03-2.54.28-5.16.55-7.75.83l87.7-392.52c.91-.88,1.79-1.82,2.65-2.76,1.32-1.49,3.39-1.77,5.02-.86.11.06.22.11.33.19.28.17.52.41.74.66.33.39.69.77,1.05,1.16Z"/>
    <g>
      <path class="cls-4" d="m478.28,367.36c-32.42,10.75-66.74,15.17-100.9,15.41-23.14.17-46.99-.14-69.23-7.28-21.28-6.83-41.07-20.28-56.52-36.3-8.41-8.73-17.3-18.8-20.99-30.48-4.02-12.71-3.41-26.72,1.42-39.12,7.52-19.29,25.85-32.16,44.95-38.41,4.86-1.59,9.85-2.79,14.9-3.56,3.28-.5,9.09-2.43,11.1,1.35.69,1.29.84,2.79,1.04,4.24,1.86,14.06,8.22,27.63,17.31,38.47,17.09,20.39,38.6,25.46,42.81,26.52.68,0-4.11-.38-11.06-1.99-30.82-7.13-42.72-23.9-69.28-26.47-4.79-.46-7.83,2.25-9.84,5.63-2.77,4.67.88,10.63,3.18,13.55,14.08,17.84,58.22,34.23,105.26,27.83,36.91-5.02,71.51-25.24,94.01-54.93,16.52,8.96,33.42,18.22,43.75,34.81,3.78,6.08,6.26,12.98,6.68,20.13,1.59,27.18-24.03,42.35-47.55,50.26-.35.12-.69.23-1.04.35Z"/>
      <path class="cls-4" d="m253.83,704.1c8.78-29.8,26.21-75.55,61.98-122.55,17.76-23.34,36.36-42.13,53.6-57.05,17.13-14.82,36.33-27,56.61-37.1,22.04-10.97,52.62-30.86,77.14-65.5,10.9-15.39,18.38-30.56,23.57-44,7.41-19.17,16.17-37.79,26.71-55.43l2.31-3.87c15.14,8.17,53.19,31.37,75.13,78.41,5.42,11.62,17,37.22,15.03,70.43-3.78,63.58-54.12,102.49-63.39,109.4-17.89,14.21-43.84,38.77-63.85,76.32-10.43,19.59-16.74,38.01-20.67,53.27-81.39-.78-162.78-1.57-244.16-2.35Z"/>
      <path class="cls-4" d="m515.37,703.63c9.47-20.99,23.95-47.58,46.02-75.13,14.85-18.53,29.94-33.52,43.62-45.41,13.94-12.12,26.44-25.87,36.44-41.41,4.11-6.39,8.17-13.44,11.97-21.17,11.11-22.6,16.25-43.25,18.78-58.22,13.85,10.62,35.72,30.17,53.53,61.04,18.34,31.79,24.18,61.39,26.29,78.88,1.16,10.45,1.57,26.59-3.76,45.08-9.13,31.71-29.49,50.74-38.5,58.22-64.8-.63-129.59-1.25-194.39-1.88Z"/>
      <g>
        <path class="cls-1" d="m156.9,636.6c3.03-31.25,16.55-60.03,38.78-82.21,14.85-15.1,32.72-26.89,50.78-37.77,11.16-6.66,22.39-13.25,33.95-19.21,14.49-7.3,29.05-14.55,42.89-23.04,19.35-12.32,32.9-31.32,44.89-50.47-3.49,5.48-6.87,11.03-10.56,16.39-9.12,13.45-20.31,25.69-34,34.6-8.27,5.13-16.9,9.83-25.49,14.38-17.45,8.72-34.57,17.96-51.18,28.2-11.15,6.64-22.12,13.61-32.46,21.46-32.51,24.5-52.93,56.85-57.61,97.67h0Z"/>
        <path class="cls-1" d="m397.87,684.73c3.03-31.25,16.55-60.03,38.78-82.21,14.85-15.1,32.72-26.89,50.78-37.77,11.16-6.66,22.39-13.25,33.95-19.21,14.49-7.3,29.05-14.55,42.89-23.04,19.35-12.32,32.9-31.32,44.89-50.47-3.49,5.48-6.87,11.03-10.56,16.39-9.12,13.45-20.31,25.69-34,34.6-8.27,5.13-16.9,9.83-25.49,14.38-17.45,8.72-34.57,17.96-51.18,28.2-11.15,6.64-22.12,13.61-32.46,21.46-32.51,24.5-52.93,56.85-57.61,97.67h0Z"/>
        <path class="cls-1" d="m45.14,646c2.31-44.82,23.03-88.25,56.54-118.13,11.08-10.04,23.48-18.58,36.69-25.57,13.4-6.55,27.07-12.49,40.07-19.83,39.19-21.51,75.02-49.05,106.17-81.1-35.88,37.94-78.72,69.22-125.62,92.18-6.66,3.33-13.56,6.19-20.16,9.64-53.88,27.65-89.84,82.32-93.69,142.81h0Z"/>
        <path class="cls-1" d="m231.08,460.99c31.95-2.11,62.89-16.1,85.24-39.07,3.23-3.23,6.25-6.68,9.14-10.23-5.43,7.38-11.76,14.11-18.74,20.08-20.94,17.93-48.08,28.48-75.64,29.22h0Z"/>
        <path class="cls-1" d="m425.95,422.96c-16.54,22.92-41.91,38.49-69.24,45.01-9.08,2.22-18.36,3.93-27.72,4.06,4.67-.25,9.3-.88,13.88-1.73,32.7-5.76,62.35-20.95,83.08-47.33h0Z"/>
        <path class="cls-1" d="m642.41,573.22c13.85,7.04,27.3,18.72,29.89,34.79,2.44,16.01-5.36,31.78-15.93,43.37-12.81,14.11-30.39,23.36-48.71,27.96,23.92-6.77,47.16-21.38,58.68-44,13.61-26.96.8-48.68-23.93-62.11h0Z"/>
        <path class="cls-1" d="m382.28,547.86c36.07-26.97,77.09-47.29,120.39-59.7,24.23-5.71,46.77-19.16,62.38-38.66,6.27-7.76,11.44-16.41,15.38-25.6-4.75,11.54-11.39,22.42-19.87,31.63-11.76,13.06-26.85,22.96-43.28,29.14-4.69,1.78-9.52,3.23-14.37,4.42-43.18,12.47-84.15,32.52-120.63,58.78h0Z"/>
      </g>
      <g>
        <path class="cls-3" d="m400.14,157.76c11.46-54.37,47.58-102.98,97.07-128.5,7.03-3.66,14.22-6.97,21.48-10.26.54-.24,1.17,0,1.41.53.27.58-.05,1.28-.67,1.46-7.56,2.25-14.83,5.39-21.82,9.03-35.11,18.09-64.03,47.71-81.25,83.26-6.91,14.19-12.03,29.24-15.25,44.68-.06.27-.32.44-.59.39-.27-.06-.45-.32-.39-.59h0Z"/>
        <path class="cls-3" d="m472.86,230.24c-7.05,42.53-50.02,69.02-92.17,61.82-46.5-7.95-75.28-54.32-64.47-100.24,18.69-79.35,68.93-41.73,89.09-38.76,17.9,2.63,84.38-24.4,67.54,77.19Z"/>
        <path class="cls-3" d="m298.54,101.37c-1.56.18-3.1.35-4.62.52,11.77-11.53,24.16-24.67,36.69-39.53,6.96-8.25,13.4-16.37,19.37-24.29,12.91-17.13,31.01-29.89,51.86-34.94,1.46-.35,2.94-.68,4.46-.99,1.39-.28,2.76-.53,4.11-.75,18.3-3.02,37.08-.97,54.62,5.07l34.85,12s4.47,1.54,11.69,4.02c-1.79-.39-3.63-.74-5.52-1.07-3.67-.64-7.2-1.14-10.58-1.51-7.24-.8-14.45,1.6-19.69,6.66-6.64,6.41-14.28,13.09-22.99,19.69-1.51,1.15-3.02,2.26-4.52,3.35-21.91,15.84-46.51,27.48-72.34,35.47-3.79,1.17-7.67,2.31-11.63,3.42-23.89,6.65-46.08,10.61-65.77,12.91Z"/>
        <path class="cls-1" d="m455.31,207.99c-.03-.17-.27-.18-.31,0-1.59,6.41-3.67,13.43-6.39,20.87-1.34,3.67-2.74,7.17-4.16,10.47-2.95,6.87-7.02,13.21-12.27,18.53-.03.03-.06.06-.09.09-8.11,8.19-16.54,13.67-23.52,17.34-.17.09-.08.34.1.3,6.25-1.36,14.17-3.74,22.7-8.1h0c11.66-5.97,20.08-16.79,22.93-29.58.11-.47.21-.95.31-1.44,2.38-11.7,1.73-21.72.7-28.48Z"/>
      </g>
      <path class="cls-5" d="m353.12,364.75c46.13,11.82,96.37,4.18,134.79-24.65,5.48-3.96,10.64-8.36,15.61-12.98-11.68,12.35-25.62,22.59-40.89,30.07-33.74,16.53-73.77,18.77-109.5,7.56h0Z"/>
    </g>
  </g>
  <g>
    <path class="cls-3" d="m1389.76,239.34c16.44,14.11,28.66,31.76,36.67,52.93,8,21.18,12.01,43.29,12.01,66.34s-2.17,45.42-6.49,67.05c-4.33,21.65-10.39,43.29-18.18,64.93-16.01,43.29-38.41,83.04-67.19,119.27-28.78,36.24-61.78,65.41-98.99,87.52-11.69,7.06-23.6,13.18-35.71,18.35-50.64,20.7-93.7,25.64-129.18,14.82-.44,0-1.09-.23-1.95-.71-15.15-5.17-28.67-14.11-40.57-26.82-11.89-12.7-19.36-27.04-22.39-43.05-3.03-22.58,2.6-42.34,16.88-59.28,6.49-7.52,15.36-14.58,26.61-21.18,11.25-6.58,20.13-7.52,26.62-2.82,1.3.95,2.16,2.12,2.6,3.52,1.3,3.77-1.3,10.12-7.79,19.06-4.77,6.13-8.01,12.95-9.74,20.47-.87,7.53.21,14.82,3.25,21.87,3.02,7.06,7.57,12.48,13.63,16.24,10.39,7.53,21.74,11.64,34.08,12.35,12.33.71,24.45-1.41,36.35-6.35,11.9-4.95,22.93-10.82,33.11-17.64,10.17-6.81,20.02-14.7,29.54-23.64,37.65-36.7,69.02-79.4,94.12-128.1,25.1-48.69,37.21-97.04,36.35-145.03,0-22.59-5.19-39.29-15.58-50.12-9.08-9.41-23.15-14.58-42.19-15.53-52.37-1.88-99.11,15.06-140.22,50.81-10.39,9.42-18.61,19.41-24.67,30-6.07,10.59-9.52,22.23-10.39,34.94-.87,12.7,3.46,24.94,12.99,36.7.42.47,1.51,1.89,3.24,4.23,1.73,2.36,3.03,4.24,3.9,5.65,2.59,3.76,1.83,6.24-2.27,7.41-4.12,1.18-7.69,1.3-10.71.35-16.01-5.65-29.53-15.4-40.57-29.29-11.03-13.87-16.34-29.53-15.9-46.94.86-47.99,30.52-90.8,88.93-128.45,35.92-22.59,74.43-35.75,115.55-39.53,48.9-4.23,86.98,5.65,114.25,29.65Zm-201.24,153.16c1.3-4.7,4.75-17.88,10.39-39.53,2.16-9.41,2.16-16.46,0-21.17-1.74-4.24,0-8,5.19-11.29,8.65-4.7,17.53-5.18,26.62-1.41,14.28,5.19,25.63,14.23,34.07,27.17,8.44,12.95,10.06,26.71,4.87,41.29-3.47,10.36-8.88,26.11-16.23,47.29-28.57,80.93-55.41,145.64-80.49,194.09-2.17,4.7-3.9,8-5.2,9.88-1.29,1.89-3.35,4-6.17,6.35-2.82,2.36-6.17,3.77-10.06,4.24-13.85.47-27.26-2.35-40.25-8.48-6.49-2.82-10.29-5.88-11.36-9.17-1.09-3.29-.32-8.23,2.27-14.83.43-.94.86-1.87,1.3-2.82.43-.94.86-2,1.3-3.18.43-1.17.86-2.23,1.3-3.18,36.78-84.22,64.27-155.97,82.44-215.26Z"/>
    <path class="cls-3" d="m1555.28,255.57c-1.3,13.18-8.88,30.35-22.72,51.52-13.86,21.18-24.02,31.77-30.51,31.77-12.99,0-19.48-7.06-19.48-21.18.43-2.83,1.51-5.4,3.25-7.76.86-1.88,3.02-6.11,6.49-12.71,6.05-10.34,11.46-21.4,16.23-33.17,3.89-9.88,6.05-20.46,6.49-31.76,0-5.18-.65-10.35-1.95-15.53-.44-2.83-.22-4.24.65-4.24,10.39,0,20.13,3.42,29.22,10.24,9.08,6.82,13.19,17.77,12.33,32.82Z"/>
    <path class="cls-3" d="m1966.84,206.87c19.03,2.36,32.46,10.58,40.25,24.7,5.19,10.36,5.19,20.71,0,31.05-46.74,118.57-81.37,225.15-103.86,319.72-3.03,13.18-5.31,24.24-6.81,33.17-1.52,8.94-2.5,20.01-2.92,33.18-.44,13.17,1.3,24.82,5.19,34.94,3.9,10.12,10.17,18.47,18.83,25.05,8.22,6.12-.65,17.18-26.62,33.17-15.58,9.41-29.21,13.64-40.9,12.71-9.96-.47-19.26-3.3-27.91-8.47-8.66-5.19-15.16-12-19.48-20.47-1.74-4.24-2.92-9.18-3.57-14.82-.65-5.65-.65-11.53,0-17.64.65-6.12,1.62-12.47,2.92-19.06,1.3-6.58,2.81-13.41,4.55-20.47,1.72-7.06,3.34-13.64,4.87-19.76,1.51-6.11,3.03-12.23,4.55-18.35,1.51-6.11,2.69-11.04,3.57-14.82-8.66-3.76-20.02-6.23-34.08-7.41-14.07-1.17-29.32-.35-45.76,2.47-.87.95-3.36,4-7.46,9.18-4.12,5.18-7.25,8.94-9.41,11.29-56.7,69.64-103.65,120.69-140.87,153.16-19.04,16.94-37,25.41-53.88,25.41-19.04,0-32.56-9.06-40.57-27.17-8-18.12-9.63-37.29-4.87-57.52,1.29-5.65,3.14-9.76,5.52-12.35,2.39-2.58,5.09-2,8.11,1.77.87.95,1.62,2.36,2.27,4.23.65,1.89,1.2,3.3,1.62,4.24,11.69,21.17,39.38,9.42,83.09-35.29,6.05-6.11,18.39-20,37.01-41.64,5.62-6.59,9.94-13.88,12.98-21.88,1.73-4.23,2.05-7.29.97-9.18-1.09-1.87-3.8-1.65-8.11.71-1.3.95-1.74,3.42-1.3,7.41.43,4.01,0,6.7-1.3,8.12-3.47,2.36-6.93,2.12-10.38-.71-11.26-5.64-17.2-15.05-17.85-28.22-.65-13.17,3.99-23.3,13.95-30.35,21.63-16.46,48.69-24.23,81.14-23.29,6.92,0,13.41-4,19.48-12,25.09-36.23,47.6-74.11,67.51-113.63,31.16-59.28,51.06-99.28,59.73-119.99,6.92-15.99,13.95-29.4,21.09-40.23,7.14-10.82,16.12-19.52,26.94-26.11,25.53-14.58,52.79-19.52,81.79-14.82Zm-88.28,177.15c.86-2.35,1.07-4,.65-4.95-.44-.94-1.52-.47-3.25,1.41-4.33,5.19-8.01,10.83-11.04,16.94-15.15,24.94-30.73,52.23-46.74,81.87-.44.47-1.74,2.71-3.89,6.7-2.17,4.01-4.66,8.36-7.46,13.06-2.82,4.7-5.63,9.52-8.44,14.47-2.82,4.94-5.1,9.06-6.81,12.35-1.74,3.29-2.39,5.18-1.95,5.64,14.71-.47,29.21.95,43.49,4.23.86-2.82,1.73-5.64,2.6-8.47,21.63-74.81,35.92-122.56,42.85-143.27Z"/>
    <path class="cls-3" d="m2195.99,232.28c2.16,1.89,3.25,4.35,3.25,7.41s-1.09,5.54-3.25,7.41c-13.42,14.12-25.32,29.89-35.7,47.29-11.26,18.35-21.65,37.41-31.16,57.16-42.85,89.4-69.46,184.21-79.85,284.43-2.16,22.12-1.52,39.77,1.95,52.93.43,2.83,1.08,4.48,1.95,4.94,1.3.96,3.02.25,5.19-2.11,7.35-7.06,13.85-14.83,19.48-23.3,5.62-8.93,10.81-18.1,15.58-27.53,10.81-22.11,20.33-44.69,28.56-67.75,5.63-14.58,12.12-33.17,19.48-55.76,2.6-7.51,4.1-12.23,4.55-14.11,1.29-3.28,3.45-5.64,6.49-7.06,3.02-1.41,6.05-1.52,9.09-.35,3.02,1.18,5.19,3.42,6.49,6.7,1.3,3.3,1.51,6.6.65,9.88-.87,2.36-2.6,7.06-5.2,14.11-7.79,23.54-14.93,44.24-21.42,62.11-9.96,26.82-21.42,52.71-34.41,77.64-15.58,27.77-32.68,47.52-51.28,59.28-12.12,7.53-22.3,10.11-30.52,7.76-14.28-4.7-24.89-14.11-31.81-28.23-9.09-17.88-14.07-36.7-14.93-56.46-6.05-60.22,2.81-129.63,26.62-208.21,3.45-11.29,7.35-22.93,11.68-34.94,4.33-11.99,9.09-24.58,14.29-37.76,5.19-13.16,10.48-25.86,15.9-38.11,5.4-12.23,11.36-24.23,17.85-36,6.5-11.76,12.55-22.12,18.18-31.06,11.25-16.46,24.88-30.1,40.9-40.93,19.48-12.71,40.03-12.23,61.67,1.41,3.89,2.36,7.14,5.41,9.73,9.18Z"/>
    <path class="cls-3" d="m2234.94,525.89c-.44,2.82,0,4.47,1.3,4.94.86-.94,1.51-1.88,1.94-2.83,1.73-2.34,5.41-9.41,11.04-21.17,8.65-16.94,15.47-30,20.45-39.17,4.97-9.18,12.11-20.12,21.42-32.82,9.3-12.71,18.92-23.05,28.88-31.06,12.99-10.81,26.62-11.29,40.9-1.4,17.31,10.82,29.22,26.59,35.71,47.28,9.09,28.23,11.24,56.94,6.49,86.1-1.3,8.01-3.47,20.01-6.49,36-1.74,8.47-3.03,15.07-3.9,19.76-.44.95.21,1.65,1.95,2.12,1.73,0,4.75-2.12,9.09-6.35,18.18-16.46,33.97-40.7,47.39-72.7,1.73-4.7,3.68-9.18,5.84-13.41,3.03-6.58,8-8.47,14.94-5.64,6.05,3.3,8.21,8.71,6.49,16.23-.44,1.89-1.09,3.77-1.95,5.64-13.42,34.83-29.86,62.58-49.34,83.29-14.72,15.53-30.29,23.29-46.74,23.29-6.07,11.77-9.31,18.35-9.74,19.76-12.98,27.77-30.08,51.99-51.29,72.7-17.31,16-34.62,25.87-51.93,29.65-18.61,3.76-35.49-3.3-50.64-21.18-2.17-3.28-3.47-7.06-3.89-11.29-1.3-12.7-.44-25.17,2.59-37.41,6.49-27.75,19.26-51.28,38.31-70.58,18.6-19.76,38.95-30.1,61.02-31.05,5.19,0,8.65-1.88,10.39-5.64,11.68-26.35,19.25-45.17,22.72-56.47,18.18-53.64,20.33-80.46,6.49-80.46-8.66,0-17.75,4.95-27.27,14.82-10.38,10.36-19.91,21.65-28.56,33.88-21.21,31.52-39.6,64.93-55.18,100.21-4.33,9.88-10.5,24.48-18.5,43.76-8.01,19.3-12.88,30.35-14.6,33.18-2.17,5.18-4.12,12.94-5.84,23.29-1.74,10.36-2.6,16.23-2.6,17.64-.44,1.41-.87,3.65-1.3,6.7-.44,3.07-.87,5.54-1.3,7.41-2.17,8.01-4.65,13.3-7.46,15.89-2.82,2.58-7.9,4.12-15.25,4.58-5.19,0-10.39-.47-15.58-1.41-6.49-1.41-10.93-4.34-13.3-8.82-2.38-4.46-4.22-10.94-5.52-19.41-4.75-39.52-.42-95.04,12.99-166.56,12.98-71.04,33.76-139.5,62.32-205.37,10.81-25.87,23.8-50.35,38.95-73.4,8.65-14.12,19.04-26.35,31.16-36.7,12.55-11.29,26.83-15.28,42.85-12,16.01,3.3,28.13,12.71,36.36,28.23,4.75,8.94,3.89,16.23-2.6,21.88-12.98,11.29-25.32,25.88-37.01,43.76-11.68,17.89-20.88,34-27.58,48.34-6.71,14.36-14.39,32.36-23.04,53.99-7.37,18.35-21.21,58.35-41.55,119.99Zm3.89,168.67c10.82-8.47,23.37-22.58,37.66-42.34,14.28-19.76,23.37-35.75,27.26-47.99-8.66,1.4-18.17,6.82-28.56,16.23-15.58,14.11-26.62,31.52-33.11,52.23-3.47,9.88-4.54,17.18-3.25,21.87Z"/>
    <path class="cls-3" d="m3033.72,496.95c2.81-1.88,5.85-2.35,9.09-1.41,3.25.95,5.73,2.95,7.46,6,1.73,3.07,2.16,6.25,1.3,9.53-3.47,15.53-11.47,36.94-24.02,64.23-9.09,19.3-17.75,36.24-25.97,50.81-8.23,14.59-18.4,29.89-30.51,45.88-12.12,16-25.64,29.18-40.57,39.52-14.93,10.36-30.83,17.19-47.71,20.47-25.97,5.17-50.21,0-72.71-15.53-22.5-15.53-37.23-37.41-44.15-65.64-4.76-19.28-3.24-38.34,4.55-57.16,1.72-4.24,4.1-8.23,7.14-12,5.62-7.06,12.33-8.23,20.12-3.52,6.5,4.7,8.65,11.05,6.5,19.05-.87,3.3-1.95,6.6-3.25,9.88-5.63,11.77-6.6,24.12-2.92,37.05,3.68,12.95,11.14,22.48,22.4,28.59,11.24,5.64,22.72,6.59,34.4,2.83,11.69-3.76,20.99-11.29,27.92-22.59,3.45-5.64,5.52-11.29,6.17-16.94.65-5.64.54-10.7-.32-15.17-.87-4.47-3.03-9.53-6.49-15.18-3.47-5.64-6.39-9.99-8.76-13.05-2.39-3.06-6.06-7.52-11.03-13.41-4.98-5.88-8.34-9.99-10.06-12.35-25.97-31.99-38.95-62.11-38.95-90.34,0-4.23.42-8.47,1.29-12.7-6.49,9.87-13.42,26.35-20.77,49.4-6.93,20.71-12.77,38.11-17.53,52.23-18.18,50.81-35.28,89.4-51.29,115.75-27.26,42.82-56.05,59.04-86.33,48.69-9.09-3.28-16.88-8.7-23.37-16.23-7.79-8.93-12.77-19.28-14.93-31.05-.87-4.7-1.95-10.59-3.25-17.64-1.3-4.7-2.82-6.81-4.54-6.36-1.74,1.89-3.25,4.01-4.55,6.36-9.52,11.77-19.69,23.05-30.51,33.88-16.88,16.47-29.86,26.11-38.95,28.94-12.56,4.23-25.43,2.94-38.62-3.89-13.21-6.81-22.17-17.05-26.94-30.7-21.2-63.52-12.98-133.39,24.67-209.62,26.83-53.64,58.43-83.04,94.77-88.22,18.18-2.34,35.06,1.65,50.64,12,12.54,8,24.88,22.36,37,43.05,9.09-9.41,13.85-14.34,14.29-14.82,9.51-8.47,20.22-11.29,32.13-8.47,11.89,2.82,20.66,10.12,26.28,21.87,3.03,5.19,3.46,10.59,1.3,16.23-3.46,8.47-6.28,14.59-8.44,18.35-4.33,8.47-8.23,16.94-11.68,25.41-.87.96-1.52,2.12-1.95,3.53-17.75,43.29-29.44,88.7-35.06,136.22-1.74,11.29-2.59,22.58-2.59,33.88,0,1.41.1,2.59.32,3.52.21.95.53,2.36.97,4.24.42,1.89,1.07,2.83,1.94,2.83s1.95-.23,3.25-.71c12.11-12.23,22.28-26.11,30.51-41.65,19.9-37.16,36.57-75.98,49.99-116.45,1.3-3.29,2.6-7.3,3.89-12,1.3-4.7,2.49-8.82,3.57-12.35,1.08-3.52,2.38-7.52,3.9-11.99,1.51-4.47,2.92-8.47,4.22-12,1.3-3.53,2.81-7.41,4.54-11.65,1.73-4.23,3.68-8,5.85-11.29,11.24-22.59,27.47-39.99,48.69-52.23,21.63-11.76,45.65-17.17,72.06-16.24,26.39.95,50.2,7.77,71.41,20.47,23.8,14.11,31.81,27.06,24.02,38.82-9.52,15.53-16.66,24.47-21.42,26.82-4.77,3.76-8.66,4.35-11.69,1.76-3.03-2.58-4.76-5.88-5.19-9.87-.44-4-2.92-8.82-7.46-14.47-4.55-5.64-11.15-9.88-19.8-12.7-13.42-4.24-23.8-1.65-31.16,7.76-7.36,9.42-9.52,21.87-6.49,37.41,2.6,10.35,7.14,20.7,13.63,31.05,6.49,10.36,13.19,19.06,20.13,26.11,6.92,7.06,13.95,15.53,21.09,25.41s12.22,19.76,15.25,29.65c1.73,6.59,3.03,13.17,3.9,19.76,12.98-21.18,24.56-43.16,34.72-65.99,10.17-22.81,16.55-39.87,19.15-51.17.86-3.76,2.7-6.58,5.52-8.47Zm-389.82-19.76c0-.47,1.95-4.7,5.85-12.71-2.6-5.17-3.9-8-3.9-8.47-3.89-6.11-7.25-9.75-10.06-10.93-2.81-1.17-7.46-.59-13.95,1.76-9.09,3.3-17.1,8.72-24.02,16.24-16.01,16-29.43,34.58-40.25,55.75-12.98,24.95-22.72,51.3-29.21,79.05-6.5,26.82-11.04,53.88-13.64,81.17,0,2.83.43,4.71,1.3,5.65,1.73.95,4.11.24,7.14-2.12,6.05-5.18,11.69-10.59,16.88-16.23.43-.47,1.08-1.29,1.95-2.47.86-1.17,1.51-1.77,1.95-1.77,9.51-10.35,18.18-20.93,25.97-31.76,12.54-17.4,23.79-35.52,33.75-54.35,3.03-6.11,5.63-12.47,7.79-19.06,8.22-27.76,19.04-54.35,32.46-79.75Z"/>
  </g>
  <g>
    <path class="cls-4" d="m1154.91,1007.95h-33.98v51.85c0,7.41-1.74,13.03-5.24,16.87-3.5,3.83-7.91,5.74-13.25,5.74s-10.08-1.89-13.49-5.68c-3.41-3.79-5.12-9.35-5.12-16.68v-141.17c0-8.16,1.88-13.99,5.62-17.49,3.75-3.5,9.7-5.25,17.87-5.25h47.59c14.08,0,24.9,1.08,32.48,3.25,7.5,2.08,13.97,5.54,19.43,10.37,5.46,4.83,9.6,10.74,12.43,17.73s4.25,14.87,4.25,23.61c0,18.66-5.75,32.79-17.24,42.41-11.49,9.62-28.6,14.42-51.35,14.42Zm-8.99-83.95h-24.99v55.97h24.99c8.75,0,16.06-.91,21.93-2.74,5.87-1.84,10.35-4.84,13.43-8.99,3.08-4.17,4.62-9.62,4.62-16.37,0-8.08-2.37-14.66-7.12-19.74-5.33-5.42-16.28-8.12-32.86-8.12Z"/>
    <path class="cls-4" d="m1328.57,1063.18c-8.25,6.41-16.23,11.22-23.93,14.42-7.7,3.21-16.35,4.81-25.92,4.81-8.74,0-16.43-1.73-23.05-5.18-6.62-3.46-11.72-8.14-15.31-14.05-3.58-5.92-5.37-12.33-5.37-19.25,0-9.33,2.96-17.28,8.87-23.86,5.92-6.58,14.04-10.99,24.36-13.24,2.17-.5,7.54-1.62,16.11-3.38,8.58-1.74,15.93-3.35,22.05-4.81,6.12-1.45,12.76-3.23,19.92-5.31-.41-8.99-2.23-15.59-5.43-19.8-3.21-4.21-9.85-6.31-19.93-6.31-8.66,0-15.18,1.2-19.55,3.62-4.38,2.42-8.12,6.04-11.24,10.87-3.13,4.83-5.33,8.02-6.62,9.56s-4.06,2.31-8.31,2.31c-3.83,0-7.14-1.23-9.93-3.69-2.79-2.45-4.18-5.6-4.18-9.43,0-6,2.12-11.82,6.37-17.49,4.25-5.66,10.87-10.33,19.86-13.99,8.99-3.66,20.2-5.5,33.61-5.5,14.99,0,26.77,1.78,35.35,5.31,8.58,3.54,14.64,9.14,18.18,16.8s5.31,17.82,5.31,30.48c0,8-.02,14.78-.06,20.36-.04,5.58-.1,11.79-.18,18.62,0,6.42,1.06,13.1,3.18,20.05,2.13,6.96,3.19,11.43,3.19,13.43,0,3.5-1.65,6.69-4.94,9.56-3.29,2.88-7.02,4.31-11.18,4.31-3.5,0-6.95-1.64-10.37-4.93s-7.04-8.06-10.87-14.3Zm-2.26-49.35c-5,1.83-12.26,3.77-21.8,5.81-9.53,2.05-16.13,3.55-19.8,4.5-3.67.96-7.16,2.84-10.49,5.63s-5,6.68-5,11.68,1.96,9.56,5.87,13.18c3.91,3.63,9.04,5.44,15.36,5.44,6.75,0,12.97-1.48,18.68-4.44,5.7-2.95,9.89-6.77,12.55-11.43,3.08-5.17,4.62-13.66,4.62-25.49v-4.88Z"/>
    <path class="cls-4" d="m1504.21,1037.81c0,9.41-2.29,17.47-6.87,24.18-4.58,6.71-11.34,11.78-20.3,15.24-8.95,3.45-19.84,5.18-32.67,5.18s-22.73-1.87-31.48-5.62c-8.74-3.75-15.19-8.43-19.36-14.05-4.17-5.63-6.25-11.26-6.25-16.93,0-3.75,1.33-6.96,4-9.62,2.67-2.67,6.04-4,10.12-4,3.59,0,6.33.87,8.25,2.62,1.91,1.75,3.74,4.21,5.5,7.37,3.5,6.08,7.68,10.62,12.55,13.61,4.87,3,11.51,4.5,19.93,4.5,6.83,0,12.43-1.52,16.8-4.56,4.37-3.04,6.56-6.52,6.56-10.43,0-6-2.27-10.37-6.81-13.11-4.54-2.76-12.01-5.38-22.43-7.87-11.74-2.92-21.3-5.98-28.67-9.18-7.37-3.2-13.26-7.43-17.68-12.68-4.41-5.24-6.62-11.7-6.62-19.36,0-6.83,2.04-13.28,6.12-19.36,4.09-6.08,10.1-10.93,18.06-14.56,7.95-3.62,17.55-5.43,28.79-5.43,8.83,0,16.76.91,23.8,2.74,7.04,1.84,12.91,4.29,17.62,7.37,4.7,3.08,8.29,6.5,10.74,10.24,2.45,3.75,3.69,7.41,3.69,10.99,0,3.92-1.32,7.12-3.94,9.62-2.63,2.5-6.35,3.74-11.18,3.74-3.5,0-6.48-1-8.93-3s-5.27-5-8.43-8.99c-2.59-3.33-5.63-6-9.12-8s-8.25-3-14.24-3-11.28,1.32-15.37,3.94c-4.08,2.63-6.12,5.9-6.12,9.81,0,3.58,1.5,6.52,4.5,8.81s7.04,4.19,12.11,5.69c5.08,1.5,12.08,3.33,20.99,5.5,10.58,2.58,19.22,5.66,25.92,9.24,6.71,3.59,11.78,7.81,15.24,12.68,3.46,4.88,5.19,10.43,5.19,16.68Z"/>
    <path class="cls-4" d="m1534.94,946.75h3.75v-20.49c0-5.5.14-9.81.44-12.93.29-3.13,1.1-5.81,2.43-8.06,1.34-2.34,3.25-4.23,5.75-5.69s5.29-2.19,8.37-2.19c4.33,0,8.25,1.62,11.74,4.88,2.33,2.16,3.81,4.81,4.44,7.93.62,3.13.94,7.56.94,13.3v23.24h12.49c4.83,0,8.51,1.14,11.05,3.43,2.54,2.3,3.81,5.23,3.81,8.81,0,4.59-1.81,7.79-5.44,9.62-3.62,1.83-8.81,2.75-15.55,2.75h-6.37v62.71c0,5.33.18,9.43.56,12.3.37,2.88,1.37,5.21,3,7,1.62,1.8,4.27,2.69,7.93,2.69,2,0,4.7-.35,8.12-1.06s6.08-1.07,8-1.07c2.75,0,5.23,1.11,7.43,3.32,2.2,2.21,3.31,4.94,3.31,8.18,0,5.5-3,9.7-8.99,12.62-6,2.92-14.62,4.37-25.86,4.37s-18.75-1.79-24.24-5.37-9.1-8.54-10.8-14.86c-1.71-6.33-2.56-14.79-2.56-25.36v-65.46h-4.5c-4.92,0-8.66-1.17-11.24-3.5s-3.88-5.29-3.88-8.87,1.36-6.51,4.07-8.81c2.7-2.29,6.64-3.43,11.8-3.43Z"/>
    <path class="cls-4" d="m1718.84,1021.44h-66.72c.09,7.75,1.65,14.58,4.69,20.49,3.04,5.92,7.08,10.37,12.12,13.37,5.04,3,10.6,4.5,16.67,4.5,4.09,0,7.81-.48,11.18-1.44,3.38-.95,6.64-2.45,9.81-4.5,3.17-2.04,6.08-4.23,8.75-6.56,2.66-2.33,6.12-5.5,10.37-9.49,1.75-1.5,4.25-2.25,7.5-2.25,3.5,0,6.33.96,8.5,2.87,2.17,1.92,3.25,4.63,3.25,8.12,0,3.08-1.21,6.69-3.62,10.8-2.42,4.13-6.06,8.08-10.93,11.87-4.88,3.79-10.99,6.94-18.37,9.43-7.37,2.5-15.84,3.74-25.42,3.74-21.9,0-38.93-6.24-51.09-18.73-12.16-12.49-18.24-29.44-18.24-50.85,0-10.08,1.5-19.43,4.5-28.04,3-8.62,7.37-16.01,13.12-22.18,5.74-6.17,12.82-10.89,21.23-14.18,8.41-3.29,17.75-4.94,27.98-4.94,13.33,0,24.76,2.82,34.3,8.43,9.53,5.63,16.67,12.89,21.43,21.8,4.74,8.91,7.12,17.99,7.12,27.23,0,8.58-2.46,14.14-7.37,16.68-4.91,2.55-11.82,3.81-20.73,3.81Zm-66.72-19.36h61.84c-.83-11.66-3.98-20.38-9.43-26.17-5.46-5.79-12.63-8.68-21.55-8.68s-15.47,2.93-20.93,8.81c-5.46,5.87-8.77,14.55-9.93,26.05Z"/>
    <path class="cls-4" d="m1775.68,1061.68v-147.91c0-6.83,1.52-11.99,4.56-15.49,3.04-3.5,7.14-5.25,12.3-5.25s9.33,1.74,12.49,5.19c3.17,3.46,4.75,8.64,4.75,15.56v147.91c0,6.91-1.61,12.09-4.81,15.55-3.21,3.45-7.35,5.18-12.43,5.18s-9.06-1.79-12.18-5.37c-3.12-3.58-4.69-8.7-4.69-15.36Z"/>
    <path class="cls-4" d="m1940.21,1021.44h-66.72c.09,7.75,1.65,14.58,4.69,20.49,3.04,5.92,7.08,10.37,12.12,13.37,5.04,3,10.6,4.5,16.67,4.5,4.09,0,7.81-.48,11.18-1.44,3.38-.95,6.64-2.45,9.81-4.5,3.17-2.04,6.08-4.23,8.75-6.56,2.66-2.33,6.12-5.5,10.37-9.49,1.75-1.5,4.25-2.25,7.5-2.25,3.5,0,6.33.96,8.5,2.87,2.17,1.92,3.25,4.63,3.25,8.12,0,3.08-1.21,6.69-3.62,10.8-2.42,4.13-6.06,8.08-10.93,11.87-4.88,3.79-10.99,6.94-18.37,9.43-7.37,2.5-15.84,3.74-25.42,3.74-21.9,0-38.93-6.24-51.09-18.73-12.16-12.49-18.24-29.44-18.24-50.85,0-10.08,1.5-19.43,4.5-28.04,3-8.62,7.37-16.01,13.12-22.18,5.74-6.17,12.82-10.89,21.23-14.18,8.41-3.29,17.75-4.94,27.98-4.94,13.33,0,24.76,2.82,34.3,8.43,9.53,5.63,16.67,12.89,21.43,21.8,4.74,8.91,7.12,17.99,7.12,27.23,0,8.58-2.46,14.14-7.37,16.68-4.91,2.55-11.82,3.81-20.73,3.81Zm-66.72-19.36h61.84c-.83-11.66-3.98-20.38-9.43-26.17-5.46-5.79-12.63-8.68-21.55-8.68s-15.47,2.93-20.93,8.81c-5.46,5.87-8.77,14.55-9.93,26.05Z"/>
    <path class="cls-4" d="m2030.91,1033.19v28.48c0,6.91-1.62,12.09-4.88,15.55-3.24,3.45-7.37,5.18-12.36,5.18s-8.95-1.74-12.12-5.24c-3.16-3.5-4.74-8.66-4.74-15.49v-94.94c0-15.33,5.54-22.99,16.61-22.99,5.67,0,9.74,1.79,12.24,5.37s3.87,8.87,4.13,15.86c4.08-7,8.26-12.28,12.55-15.86,4.29-3.58,10.01-5.37,17.17-5.37s14.12,1.79,20.87,5.37,10.12,8.33,10.12,14.24c0,4.17-1.43,7.6-4.31,10.3-2.87,2.71-5.98,4.07-9.31,4.07-1.25,0-4.27-.77-9.06-2.32-4.79-1.54-9.02-2.31-12.68-2.31-5,0-9.08,1.31-12.24,3.94-3.17,2.62-5.62,6.52-7.37,11.68-1.74,5.16-2.95,11.3-3.62,18.42-.67,7.12-1,15.8-1,26.05Z"/>
    <path class="cls-4" d="m2137.35,894.78h16.86c4.25,0,6.37.62,6.37,1.87,0,.67-2.33,3.37-7,8.12-4.66,4.74-9.37,9.29-14.11,13.61s-8.04,6.96-9.87,7.87c-4.74,2.41-9.83,3.62-15.23,3.62-3.59,0-5.38-1.04-5.38-3.12,0-1.42,1.08-3.88,3.25-7.37l5.63-10.49c3.24-6.08,6.08-9.95,8.5-11.61,2.41-1.67,6.08-2.5,10.99-2.5Zm5.87,68.33v98.57c0,6.83-1.63,11.99-4.87,15.49-3.25,3.5-7.37,5.24-12.37,5.24s-9.06-1.79-12.18-5.37c-3.12-3.58-4.69-8.7-4.69-15.36v-97.57c0-6.75,1.57-11.82,4.69-15.24,3.13-3.42,7.19-5.12,12.18-5.12s9.12,1.7,12.37,5.12c3.24,3.42,4.87,8.16,4.87,14.24Z"/>
    <path class="cls-4" d="m2264.65,1063.18c-8.25,6.41-16.23,11.22-23.93,14.42-7.7,3.21-16.35,4.81-25.92,4.81-8.74,0-16.43-1.73-23.05-5.18-6.62-3.46-11.72-8.14-15.31-14.05-3.58-5.92-5.37-12.33-5.37-19.25,0-9.33,2.96-17.28,8.87-23.86,5.92-6.58,14.04-10.99,24.36-13.24,2.17-.5,7.54-1.62,16.11-3.38,8.58-1.74,15.93-3.35,22.05-4.81,6.12-1.45,12.76-3.23,19.92-5.31-.41-8.99-2.23-15.59-5.43-19.8-3.21-4.21-9.85-6.31-19.93-6.31-8.66,0-15.18,1.2-19.55,3.62-4.38,2.42-8.12,6.04-11.24,10.87-3.13,4.83-5.33,8.02-6.62,9.56s-4.06,2.31-8.31,2.31c-3.83,0-7.14-1.23-9.93-3.69-2.79-2.45-4.18-5.6-4.18-9.43,0-6,2.12-11.82,6.37-17.49,4.25-5.66,10.87-10.33,19.86-13.99,8.99-3.66,20.2-5.5,33.61-5.5,14.99,0,26.77,1.78,35.35,5.31,8.58,3.54,14.64,9.14,18.18,16.8s5.31,17.82,5.31,30.48c0,8-.02,14.78-.06,20.36-.04,5.58-.1,11.79-.18,18.62,0,6.42,1.06,13.1,3.18,20.05,2.13,6.96,3.19,11.43,3.19,13.43,0,3.5-1.65,6.69-4.94,9.56-3.29,2.88-7.02,4.31-11.18,4.31-3.5,0-6.95-1.64-10.37-4.93s-7.04-8.06-10.87-14.3Zm-2.26-49.35c-5,1.83-12.26,3.77-21.8,5.81-9.53,2.05-16.13,3.55-19.8,4.5-3.67.96-7.16,2.84-10.49,5.63s-5,6.68-5,11.68,1.96,9.56,5.87,13.18c3.91,3.63,9.04,5.44,15.36,5.44,6.75,0,12.97-1.48,18.68-4.44,5.7-2.95,9.89-6.77,12.55-11.43,3.08-5.17,4.62-13.66,4.62-25.49v-4.88Z"/>
  </g>
</svg>